<svg xmlns="http://www.w3.org/2000/svg" width="21" height="20" viewBox="0 0 21 20">
  <g id="water_drop_black_24dp" transform="translate(0 -0.238)">
    <rect id="Rectangle_3" data-name="Rectangle 3" width="21" height="20" transform="translate(0 0.238)" fill="none"/>
    <path id="Path_5" data-name="Path 5" d="M10.647,2Q4,7.671,4,11.8a6.649,6.649,0,1,0,13.294,0Q17.294,7.667,10.647,2ZM7.182,11.971a.624.624,0,0,1,.615.515,2.815,2.815,0,0,0,3.024,2.385.624.624,0,1,1,.058,1.246,4.049,4.049,0,0,1-4.312-3.423A.624.624,0,0,1,7.182,11.971Z" transform="translate(-0.676 -0.338)"/>
  </g>
</svg>
